<?xml version="1.0" encoding="UTF-8"?>
<svg width="84px" height="85px" viewBox="0 0 84 85" version="1.1" xmlns="http://www.w3.org/2000/svg" xmlns:xlink="http://www.w3.org/1999/xlink">
    <!-- Generator: Sketch 50.2 (55047) - http://www.bohemiancoding.com/sketch -->
    <title>Untitled 4</title>
    <desc>Created with Sketch.</desc>
    <defs></defs>
    <g id="Page-1" stroke="none" stroke-width="1" fill="none" fill-rule="evenodd">
        <g id="BrainStationLogo-black" fill="#FFFFFF" fill-rule="nonzero">
            <g id="Group">
                <g id="Shape">
                    <path d="M36.7,3.1 L25.3,0.1 C24.5,-0.1 23.5,0.2 22.9,0.8 L3.3,23.6 C2.9,24 2.7,24.6 2.6,25.2 L0,57.5 C0,58.1 0.1,58.8 0.5,59.3 L18.2,83.2 C18.6,83.8 19.3,84.1 20.1,84.1 C20.3,84.1 20.5,84.1 20.7,84 L36.6,79.6 C37.6,79.3 38.3,78.4 38.3,77.4 L38.3,44.6 L38.3,5.4 C38.4,4.3 37.7,3.4 36.7,3.1 Z M25.3,4.3 L32,5.9 L14,17.4 L25.3,4.3 Z M6.4,27.7 L32.3,42.9 L4.3,54.8 L6.4,27.7 Z M20.8,79.9 L7.4,61.8 L33.2,76.5 L20.8,79.9 Z M7.6,57.5 L34.5,46.1 L34.5,72.9 L7.6,57.5 Z M34.4,39.9 L9.1,25 L34.4,8.9 L34.4,39.9 Z"></path>
                    <path d="M79.8,23.7 L60.2,0.9 C59.6,0.2 58.7,-0.1 57.8,0.2 L46.4,3.2 C45.4,3.5 44.7,4.4 44.7,5.4 L44.7,44.6 L44.7,77.4 C44.7,78.4 45.4,79.3 46.4,79.6 L62.3,84 C62.5,84.1 62.7,84.1 62.9,84.1 C63.6,84.1 64.3,83.8 64.8,83.2 L82.5,59.3 C82.9,58.8 83.1,58.2 83,57.5 L80.4,25.2 C80.4,24.7 80.2,24.1 79.8,23.7 Z M57.9,4.3 L69.3,17.4 L51.3,5.9 L57.9,4.3 Z M74,25 L48.7,39.9 L48.7,8.9 L74,25 Z M48.7,46.1 L75.5,57.5 L48.6,73 L48.7,46.1 Z M62.3,79.9 L50,76.6 L75.8,61.9 L62.3,79.9 Z M50.9,43 L76.8,27.8 L79,54.9 L50.9,43 Z"></path>
                </g>
            </g>
        </g>
    </g>
</svg>